<svg width="84" height="84" viewBox="0 0 84 84" fill="none" xmlns="http://www.w3.org/2000/svg">
<path d="M26.25 70H66.5L77 80.5V43.75C77 39.9 73.85 36.75 70 36.75H26.25C22.4 36.75 19.25 39.9 19.25 43.75V63C19.25 66.85 22.4 70 26.25 70Z" fill="#558B2F"/>
<path d="M50.4 57.4H44.1L42.875 61.075H39.025L45.5 43.575H48.825L55.3 61.075H51.45L50.4 57.4ZM44.975 54.6H49.35L47.25 47.95L44.975 54.6Z" fill="#1B5E20"/>
<path d="M57.75 43.75H17.5L7 54.25V14C7 10.15 10.15 7 14 7H57.75C61.6 7 64.75 10.15 64.75 14V36.75C64.75 40.6 61.6 43.75 57.75 43.75Z" fill="#8BC34A"/>
<path d="M44.45 24.85C44.45 26.6 44.1 28 43.575 29.225C43.05 30.45 42.35 31.5 41.3 32.2L44.275 34.475L42 36.575L38.15 33.6C37.8 33.6 37.275 33.775 36.75 33.775C35.7 33.775 34.65 33.6 33.6 33.25C32.725 32.9 31.85 32.2 31.15 31.5C30.45 30.8 29.925 29.75 29.575 28.7C29.225 27.65 29.05 26.425 29.05 25.025V24.325C29.05 22.925 29.225 21.7 29.575 20.65C29.925 19.6 30.45 18.55 31.15 17.85C31.85 17.15 32.55 16.45 33.6 16.1C34.475 15.75 35.525 15.575 36.75 15.575C37.8 15.575 38.85 15.75 39.9 16.1C40.775 16.45 41.65 17.15 42.35 17.85C43.05 18.55 43.575 19.6 43.925 20.65C44.275 21.7 44.45 22.925 44.45 24.325V24.85ZM40.6 23.975C40.6 22.05 40.25 20.65 39.55 19.775C38.85 18.725 37.975 18.375 36.75 18.375C35.525 18.375 34.475 18.9 33.95 19.775C33.25 20.825 32.9 22.225 32.9 23.975V24.85C32.9 25.725 33.075 26.6 33.25 27.3C33.425 28 33.6 28.7 33.95 29.05C34.3 29.575 34.65 29.925 35.175 30.1C35.7 30.275 36.225 30.45 36.75 30.45C37.975 30.45 39.025 29.925 39.55 29.05C40.25 28 40.6 26.6 40.6 24.675V23.975Z" fill="white"/>
</svg>
