<svg width="48" height="48" viewBox="0 0 48 48" fill="none" xmlns="http://www.w3.org/2000/svg">
<path d="M39.6 27.2C39.7 26.5 39.8 25.8 39.8 25C39.8 24.2 39.7 23.5 39.6 22.8L44.1 19.6C44.5 19.3 44.7 18.7 44.4 18.2L40 10.8C39.7 10.3 39.2 10.1 38.7 10.4L33.7 12.7C32.5 11.8 31.3 11.1 29.9 10.5L29.4 5.00001C29.3 4.50001 28.9 4.10001 28.4 4.10001H19.8C19.3 4.10001 18.8 4.50001 18.8 5.00001L18.3 10.5C16.9 11.1 15.6 11.8 14.5 12.7L9.49999 10.4C8.99999 10.2 8.39999 10.4 8.19999 10.8L3.89999 18.2C3.59999 18.7 3.79999 19.3 4.19999 19.6L8.69999 22.8C8.59999 23.5 8.49999 24.2 8.49999 25C8.49999 25.8 8.59999 26.5 8.69999 27.2L3.99999 30.4C3.59999 30.7 3.39999 31.3 3.69999 31.8L7.99999 39.2C8.29999 39.7 8.79999 39.9 9.29999 39.6L14.3 37.3C15.5 38.2 16.7 38.9 18.1 39.5L18.6 45C18.7 45.5 19.1 45.9 19.6 45.9H28.2C28.7 45.9 29.2 45.5 29.2 45L29.7 39.5C31.1 38.9 32.4 38.2 33.5 37.3L38.5 39.6C39 39.8 39.6 39.6 39.8 39.2L44.1 31.8C44.4 31.3 44.2 30.7 43.8 30.4L39.6 27.2ZM24 35C18.5 35 14 30.5 14 25C14 19.5 18.5 15 24 15C29.5 15 34 19.5 34 25C34 30.5 29.5 35 24 35Z" fill="#607D8B"/>
<path d="M24 13C17.4 13 12 18.4 12 25C12 31.6 17.4 37 24 37C30.6 37 36 31.6 36 25C36 18.4 30.6 13 24 13ZM24 30C21.2 30 19 27.8 19 25C19 22.2 21.2 20 24 20C26.8 20 29 22.2 29 25C29 27.8 26.8 30 24 30Z" fill="#455A64"/>
</svg>
