<svg width="38" height="38" viewBox="0 0 38 38" fill="none" xmlns="http://www.w3.org/2000/svg">
<path d="M19 2.375L22.7208 5.225L27.3125 4.59167L29.0542 8.94583L33.4083 10.6875L32.775 15.2792L35.625 19L32.775 22.7208L33.4083 27.3125L29.0542 29.0542L27.3125 33.4083L22.7208 32.775L19 35.625L15.2792 32.775L10.6875 33.4083L8.94583 29.0542L4.59167 27.3125L5.225 22.7208L2.375 19L5.225 15.2792L4.59167 10.6875L8.94583 8.94583L10.6875 4.59167L15.2792 5.225L19 2.375Z" fill="#8BC34A"/>
<path d="M27.3916 11.5583L16.625 22.325L12.1916 17.8917L9.97498 20.1083L16.625 26.7583L29.6083 13.775L27.3916 11.5583Z" fill="#CCFF90"/>
</svg>
