<svg width="84" height="84" viewBox="0 0 84 84" fill="none" xmlns="http://www.w3.org/2000/svg">
<path d="M42 52.5C36.225 52.5 31.5 47.775 31.5 42C31.5 36.225 36.225 31.5 42 31.5L42 8.75C23.625 8.75 8.75 23.625 8.75 42C8.75 60.375 23.625 75.25 42 75.25C49.7 75.25 56.875 72.625 62.65 68.075L48.65 50.225C46.725 51.625 44.45 52.5 42 52.5Z" fill="#00BCD4"/>
<path d="M52.5 42L75.25 42C75.25 23.625 60.375 8.75 42 8.75L42 31.5C47.775 31.5 52.5 36.225 52.5 42Z" fill="#448AFF"/>
<path d="M75.25 42L52.5 42C52.5 45.325 50.925 48.3 48.475 50.225L62.475 68.075C70.35 61.95 75.25 52.5 75.25 42Z" fill="#3F51B5"/>
</svg>
