<svg width="84" height="84" viewBox="0 0 84 84" fill="none" xmlns="http://www.w3.org/2000/svg">
<path d="M70 38.5H56L49 45.5V21C49 17.15 52.15 14 56 14H70C73.85 14 77 17.15 77 21V31.5C77 35.35 73.85 38.5 70 38.5Z" fill="#2196F3"/>
<path d="M29.75 47.25C37.482 47.25 43.75 40.982 43.75 33.25C43.75 25.518 37.482 19.25 29.75 19.25C22.018 19.25 15.75 25.518 15.75 33.25C15.75 40.982 22.018 47.25 29.75 47.25Z" fill="#FFA726"/>
<path d="M52.5 64.225C52.5 64.225 46.2 52.5 29.75 52.5C13.3 52.5 7 64.225 7 64.225V70H52.5V64.225Z" fill="#607D8B"/>
</svg>
